#tb 0: 1/25
#media_type 0: video
#codec_id 0: rawvideo
#dimensions 0: 832x480
#sar 0: 0/1
0,          0,          0,        1,   599040, 0xd70f52b4
0,          1,          1,        1,   599040, 0xaf3d1311
0,          2,          2,        1,   599040, 0xc1b05eef
0,          3,          3,        1,   599040, 0x74567085
0,          4,          4,        1,   599040, 0x96fddb91
0,          5,          5,        1,   599040, 0x17ad9135
0,          6,          6,        1,   599040, 0xc548a9fb
0,          7,          7,        1,   599040, 0xb4966a0d
0,          8,          8,        1,   599040, 0x4faf57f9
0,          9,          9,        1,   599040, 0x373f02e6
0,         10,         10,        1,   599040, 0xd140dd00
0,         11,         11,        1,   599040, 0x306c0cd8
0,         12,         12,        1,   599040, 0x55cf5e78
0,         13,         13,        1,   599040, 0xff0be66a
0,         14,         14,        1,   599040, 0xd9d25dad
0,         15,         15,        1,   599040, 0x15d9ea2c
0,         16,         16,        1,   599040, 0x79376390
0,         17,         17,        1,   599040, 0x24623936
0,         18,         18,        1,   599040, 0x9219bd14
0,         19,         19,        1,   599040, 0x527466b1
0,         20,         20,        1,   599040, 0x7842c98d
0,         21,         21,        1,   599040, 0x79d7fc77
0,         22,         22,        1,   599040, 0xef05bfe9
0,         23,         23,        1,   599040, 0xf8024da4
0,         24,         24,        1,   599040, 0x511d016e
0,         25,         25,        1,   599040, 0x81034a76
0,         26,         26,        1,   599040, 0x08964794
0,         27,         27,        1,   599040, 0x3a58520d
0,         28,         28,        1,   599040, 0x11b985e2
0,         29,         29,        1,   599040, 0x0a74dc70
0,         30,         30,        1,   599040, 0x84e45bf8
0,         31,         31,        1,   599040, 0xdfc7b5db
0,         32,         32,        1,   599040, 0x45b2b466
0,         33,         33,        1,   599040, 0xeb8a276b
0,         34,         34,        1,   599040, 0x60901d6b
0,         35,         35,        1,   599040, 0xa91f4bb5
0,         36,         36,        1,   599040, 0x075a6805
0,         37,         37,        1,   599040, 0x125cac7b
0,         38,         38,        1,   599040, 0x1eaf3e28
0,         39,         39,        1,   599040, 0xea09afb0
0,         40,         40,        1,   599040, 0x880f7226
0,         41,         41,        1,   599040, 0x9c59a833
0,         42,         42,        1,   599040, 0x6219dc87
0,         43,         43,        1,   599040, 0x44916437
0,         44,         44,        1,   599040, 0xb545c563
0,         45,         45,        1,   599040, 0x988d396e
0,         46,         46,        1,   599040, 0x6fa11ed6
0,         47,         47,        1,   599040, 0x7f7e3921
0,         48,         48,        1,   599040, 0x62eb7f4a
0,         49,         49,        1,   599040, 0x604c3071
0,         50,         50,        1,   599040, 0x3d0a3fdd
0,         51,         51,        1,   599040, 0x38df42ed
0,         52,         52,        1,   599040, 0x3881190d
0,         53,         53,        1,   599040, 0x6da811da
0,         54,         54,        1,   599040, 0x23c61fa1
0,         55,         55,        1,   599040, 0xfd6f428b
0,         56,         56,        1,   599040, 0xd03424a8
0,         57,         57,        1,   599040, 0xaa9b9e2e
0,         58,         58,        1,   599040, 0x626636b5
0,         59,         59,        1,   599040, 0x6ce8e513
